{
    "asset" : {
        "generator" : "Khronos glTF Blender I/O v3.2.43",
        "version" : "2.0"
    },
    "scene" : 0,
    "scenes" : [
        {
            "name" : "Scene",
            "nodes" : [
                0
            ]
        }
    ],
    "nodes" : [
        {
            "mesh" : 0,
            "name" : "Icosphere"
        }
    ],
    "meshes" : [
        {
            "name" : "Icosphere",
            "primitives" : [
                {
                    "attributes" : {
                        "POSITION" : 0,
                        "NORMAL" : 1,
                        "TEXCOORD_0" : 2
                    },
                    "indices" : 3
                }
            ]
        }
    ],
    "accessors" : [
        {
            "bufferView" : 0,
            "componentType" : 5126,
            "count" : 245,
            "max" : [
                0.19228821992874146,
                0.3543047606945038,
                0.4637150168418884
            ],
            "min" : [
                -0.10812944173812866,
                -0.35889843106269836,
                -0.5176395177841187
            ],
            "type" : "VEC3"
        },
        {
            "bufferView" : 1,
            "componentType" : 5126,
            "count" : 245,
            "type" : "VEC3"
        },
        {
            "bufferView" : 2,
            "componentType" : 5126,
            "count" : 245,
            "type" : "VEC2"
        },
        {
            "bufferView" : 3,
            "componentType" : 5123,
            "count" : 309,
            "type" : "SCALAR"
        }
    ],
    "bufferViews" : [
        {
            "buffer" : 0,
            "byteLength" : 2940,
            "byteOffset" : 0
        },
        {
            "buffer" : 0,
            "byteLength" : 2940,
            "byteOffset" : 2940
        },
        {
            "buffer" : 0,
            "byteLength" : 1960,
            "byteOffset" : 5880
        },
        {
            "buffer" : 0,
            "byteLength" : 618,
            "byteOffset" : 7840
        }
    ],
    "buffers" : [
        {
            "byteLength" : 8460,
            "uri" : "data:application/octet-stream;base64,"
        }
    ]
}
