{
    "asset" : {
        "generator" : "Khronos glTF Blender I/O v3.2.43",
        "version" : "2.0"
    },
    "scene" : 0,
    "scenes" : [
        {
            "name" : "Scene",
            "nodes" : [
                0,
                1,
                2,
                3,
                4
            ]
        }
    ],
    "nodes" : [
        {
            "mesh" : 0,
            "name" : "aboutContinent"
        },
        {
            "mesh" : 1,
            "name" : "lifeContinent"
        },
        {
            "mesh" : 2,
            "name" : "connectContinent"
        },
        {
            "mesh" : 3,
            "name" : "projectsContinent"
        },
        {
            "mesh" : 4,
            "name" : "workContinent"
        }
    ],
    "materials" : [
        {
            "doubleSided" : true,
            "name" : "green",
            "pbrMetallicRoughness" : {
                "baseColorFactor" : [
                    0.22696544229984283,
                    0.5088810920715332,
                    0.17788851261138916,
                    1
                ],
                "metallicFactor" : 0,
                "roughnessFactor" : 0.5
            }
        },
        {
            "doubleSided" : true,
            "name" : "brown",
            "pbrMetallicRoughness" : {
                "baseColorFactor" : [
                    1,
                    0.6038267612457275,
                    0.27467742562294006,
                    1
                ],
                "metallicFactor" : 0,
                "roughnessFactor" : 0.5
            }
        }
    ],
    "meshes" : [
        {
            "name" : "Icosphere.010",
            "primitives" : [
                {
                    "attributes" : {
                        "POSITION" : 0,
                        "NORMAL" : 1,
                        "TEXCOORD_0" : 2
                    },
                    "indices" : 3,
                    "material" : 0
                }
            ]
        },
        {
            "name" : "Icosphere.012",
            "primitives" : [
                {
                    "attributes" : {
                        "POSITION" : 4,
                        "NORMAL" : 5,
                        "TEXCOORD_0" : 6
                    },
                    "indices" : 7,
                    "material" : 0
                }
            ]
        },
        {
            "name" : "Icosphere.005",
            "primitives" : [
                {
                    "attributes" : {
                        "POSITION" : 8,
                        "NORMAL" : 9,
                        "TEXCOORD_0" : 10
                    },
                    "indices" : 11,
                    "material" : 0
                },
                {
                    "attributes" : {
                        "POSITION" : 12,
                        "NORMAL" : 13,
                        "TEXCOORD_0" : 14
                    },
                    "indices" : 15,
                    "material" : 1
                }
            ]
        },
        {
            "name" : "Icosphere.009",
            "primitives" : [
                {
                    "attributes" : {
                        "POSITION" : 16,
                        "NORMAL" : 17,
                        "TEXCOORD_0" : 18
                    },
                    "indices" : 19,
                    "material" : 0
                },
                {
                    "attributes" : {
                        "POSITION" : 20,
                        "NORMAL" : 21,
                        "TEXCOORD_0" : 22
                    },
                    "indices" : 23,
                    "material" : 1
                }
            ]
        },
        {
            "name" : "Icosphere.008",
            "primitives" : [
                {
                    "attributes" : {
                        "POSITION" : 24,
                        "NORMAL" : 25,
                        "TEXCOORD_0" : 26
                    },
                    "indices" : 27,
                    "material" : 0
                },
                {
                    "attributes" : {
                        "POSITION" : 28,
                        "NORMAL" : 29,
                        "TEXCOORD_0" : 30
                    },
                    "indices" : 31,
                    "material" : 1
                }
            ]
        }
    ],
    "accessors" : [
        {
            "bufferView" : 0,
            "componentType" : 5126,
            "count" : 292,
            "max" : [
                103.80952453613281,
                77.91769409179688,
                19.888736724853516
            ],
            "min" : [
                63.81934356689453,
                12.989261627197266,
                -47.999202728271484
            ],
            "type" : "VEC3"
        },
        {
            "bufferView" : 1,
            "componentType" : 5126,
            "count" : 292,
            "type" : "VEC3"
        },
        {
            "bufferView" : 2,
            "componentType" : 5126,
            "count" : 292,
            "type" : "VEC2"
        },
        {
            "bufferView" : 3,
            "componentType" : 5123,
            "count" : 564,
            "type" : "SCALAR"
        },
        {
            "bufferView" : 4,
            "componentType" : 5126,
            "count" : 381,
            "max" : [
                11.568862915039062,
                -12.989389419555664,
                -39.960323333740234
            ],
            "min" : [
                -70.52275085449219,
                -84.03595733642578,
                -101.2333755493164
            ],
            "type" : "VEC3"
        },
        {
            "bufferView" : 5,
            "componentType" : 5126,
            "count" : 381,
            "type" : "VEC3"
        },
        {
            "bufferView" : 6,
            "componentType" : 5126,
            "count" : 381,
            "type" : "VEC2"
        },
        {
            "bufferView" : 7,
            "componentType" : 5123,
            "count" : 705,
            "type" : "SCALAR"
        },
        {
            "bufferView" : 8,
            "componentType" : 5126,
            "count" : 186,
            "max" : [
                53.7674560546875,
                -51.95724868774414,
                88.80686950683594
            ],
            "min" : [
                -23.28215217590332,
                -91.8027572631836,
                30.901138305664062
            ],
            "type" : "VEC3"
        },
        {
            "bufferView" : 9,
            "componentType" : 5126,
            "count" : 186,
            "type" : "VEC3"
        },
        {
            "bufferView" : 10,
            "componentType" : 5126,
            "count" : 186,
            "type" : "VEC2"
        },
        {
            "bufferView" : 11,
            "componentType" : 5123,
            "count" : 324,
            "type" : "SCALAR"
        },
        {
            "bufferView" : 12,
            "componentType" : 5126,
            "count" : 74,
            "max" : [
                29.630008697509766,
                -58.63344192504883,
                81.91584014892578
            ],
            "min" : [
                -23.721529006958008,
                -96.75394439697266,
                28.290237426757812
            ],
            "type" : "VEC3"
        },
        {
            "bufferView" : 13,
            "componentType" : 5126,
            "count" : 74,
            "type" : "VEC3"
        },
        {
            "bufferView" : 14,
            "componentType" : 5126,
            "count" : 74,
            "type" : "VEC2"
        },
        {
            "bufferView" : 15,
            "componentType" : 5123,
            "count" : 90,
            "type" : "SCALAR"
        },
        {
            "bufferView" : 16,
            "componentType" : 5126,
            "count" : 238,
            "max" : [
                36.236568450927734,
                92.61566162109375,
                93.8852310180664
            ],
            "min" : [
                -41.38555908203125,
                39.90961456298828,
                46.936893463134766
            ],
            "type" : "VEC3"
        },
        {
            "bufferView" : 17,
            "componentType" : 5126,
            "count" : 238,
            "type" : "VEC3"
        },
        {
            "bufferView" : 18,
            "componentType" : 5126,
            "count" : 238,
            "type" : "VEC2"
        },
        {
            "bufferView" : 19,
            "componentType" : 5123,
            "count" : 498,
            "type" : "SCALAR"
        },
        {
            "bufferView" : 20,
            "componentType" : 5126,
            "count" : 46,
            "max" : [
                37.029361724853516,
                78.05091857910156,
                88.65641021728516
            ],
            "min" : [
                -1.0019785165786743,
                47.698768615722656,
                63.25931930541992
            ],
            "type" : "VEC3"
        },
        {
            "bufferView" : 21,
            "componentType" : 5126,
            "count" : 46,
            "type" : "VEC3"
        },
        {
            "bufferView" : 22,
            "componentType" : 5126,
            "count" : 46,
            "type" : "VEC2"
        },
        {
            "bufferView" : 23,
            "componentType" : 5123,
            "count" : 54,
            "type" : "SCALAR"
        },
        {
            "bufferView" : 24,
            "componentType" : 5126,
            "count" : 256,
            "max" : [
                -71.90155029296875,
                64.5168228149414,
                52.93992233276367
            ],
            "min" : [
                -103.69933319091797,
                -13.303019523620605,
                -24.05328941345215
            ],
            "type" : "VEC3"
        },
        {
            "bufferView" : 25,
            "componentType" : 5126,
            "count" : 256,
            "type" : "VEC3"
        },
        {
            "bufferView" : 26,
            "componentType" : 5126,
            "count" : 256,
            "type" : "VEC2"
        },
        {
            "bufferView" : 27,
            "componentType" : 5123,
            "count" : 552,
            "type" : "SCALAR"
        },
        {
            "bufferView" : 28,
            "componentType" : 5126,
            "count" : 60,
            "max" : [
                -94.7213134765625,
                28.74850082397461,
                31.668142318725586
            ],
            "min" : [
                -102.63919830322266,
                -13.472949028015137,
                -24.4810848236084
            ],
            "type" : "VEC3"
        },
        {
            "bufferView" : 29,
            "componentType" : 5126,
            "count" : 60,
            "type" : "VEC3"
        },
        {
            "bufferView" : 30,
            "componentType" : 5126,
            "count" : 60,
            "type" : "VEC2"
        },
        {
            "bufferView" : 31,
            "componentType" : 5123,
            "count" : 72,
            "type" : "SCALAR"
        }
    ],
    "bufferViews" : [
        {
            "buffer" : 0,
            "byteLength" : 3504,
            "byteOffset" : 0
        },
        {
            "buffer" : 0,
            "byteLength" : 3504,
            "byteOffset" : 3504
        },
        {
            "buffer" : 0,
            "byteLength" : 2336,
            "byteOffset" : 7008
        },
        {
            "buffer" : 0,
            "byteLength" : 1128,
            "byteOffset" : 9344
        },
        {
            "buffer" : 0,
            "byteLength" : 4572,
            "byteOffset" : 10472
        },
        {
            "buffer" : 0,
            "byteLength" : 4572,
            "byteOffset" : 15044
        },
        {
            "buffer" : 0,
            "byteLength" : 3048,
            "byteOffset" : 19616
        },
        {
            "buffer" : 0,
            "byteLength" : 1410,
            "byteOffset" : 22664
        },
        {
            "buffer" : 0,
            "byteLength" : 2232,
            "byteOffset" : 24076
        },
        {
            "buffer" : 0,
            "byteLength" : 2232,
            "byteOffset" : 26308
        },
        {
            "buffer" : 0,
            "byteLength" : 1488,
            "byteOffset" : 28540
        },
        {
            "buffer" : 0,
            "byteLength" : 648,
            "byteOffset" : 30028
        },
        {
            "buffer" : 0,
            "byteLength" : 888,
            "byteOffset" : 30676
        },
        {
            "buffer" : 0,
            "byteLength" : 888,
            "byteOffset" : 31564
        },
        {
            "buffer" : 0,
            "byteLength" : 592,
            "byteOffset" : 32452
        },
        {
            "buffer" : 0,
            "byteLength" : 180,
            "byteOffset" : 33044
        },
        {
            "buffer" : 0,
            "byteLength" : 2856,
            "byteOffset" : 33224
        },
        {
            "buffer" : 0,
            "byteLength" : 2856,
            "byteOffset" : 36080
        },
        {
            "buffer" : 0,
            "byteLength" : 1904,
            "byteOffset" : 38936
        },
        {
            "buffer" : 0,
            "byteLength" : 996,
            "byteOffset" : 40840
        },
        {
            "buffer" : 0,
            "byteLength" : 552,
            "byteOffset" : 41836
        },
        {
            "buffer" : 0,
            "byteLength" : 552,
            "byteOffset" : 42388
        },
        {
            "buffer" : 0,
            "byteLength" : 368,
            "byteOffset" : 42940
        },
        {
            "buffer" : 0,
            "byteLength" : 108,
            "byteOffset" : 43308
        },
        {
            "buffer" : 0,
            "byteLength" : 3072,
            "byteOffset" : 43416
        },
        {
            "buffer" : 0,
            "byteLength" : 3072,
            "byteOffset" : 46488
        },
        {
            "buffer" : 0,
            "byteLength" : 2048,
            "byteOffset" : 49560
        },
        {
            "buffer" : 0,
            "byteLength" : 1104,
            "byteOffset" : 51608
        },
        {
            "buffer" : 0,
            "byteLength" : 720,
            "byteOffset" : 52712
        },
        {
            "buffer" : 0,
            "byteLength" : 720,
            "byteOffset" : 53432
        },
        {
            "buffer" : 0,
            "byteLength" : 480,
            "byteOffset" : 54152
        },
        {
            "buffer" : 0,
            "byteLength" : 144,
            "byteOffset" : 54632
        }
    ],
    "buffers" : [
        {
            "byteLength" : 54776,
            "uri" : "data:application/octet-stream;base64,"
        }
    ]
}
