{
    "asset" : {
        "generator" : "Khronos glTF Blender I/O v3.2.43",
        "version" : "2.0"
    },
    "scene" : 0,
    "scenes" : [
        {
            "name" : "Scene",
            "nodes" : [
                0,
                1,
                2,
                3,
                4,
                5
            ]
        }
    ],
    "nodes" : [
        {
            "mesh" : 0,
            "name" : "continents"
        },
        {
            "mesh" : 1,
            "name" : "continents.001"
        },
        {
            "mesh" : 2,
            "name" : "continents.002"
        },
        {
            "mesh" : 3,
            "name" : "continents.003"
        },
        {
            "mesh" : 4,
            "name" : "continents.004"
        },
        {
            "mesh" : 5,
            "name" : "continents.005"
        }
    ],
    "materials" : [
        {
            "doubleSided" : true,
            "name" : "green",
            "pbrMetallicRoughness" : {
                "baseColorFactor" : [
                    0.22696544229984283,
                    0.5088810920715332,
                    0.17788851261138916,
                    1
                ],
                "metallicFactor" : 0,
                "roughnessFactor" : 0.5
            }
        },
        {
            "doubleSided" : true,
            "name" : "brown",
            "pbrMetallicRoughness" : {
                "baseColorFactor" : [
                    1,
                    0.6038267612457275,
                    0.27467742562294006,
                    1
                ],
                "metallicFactor" : 0,
                "roughnessFactor" : 0.5
            }
        },
        {
            "doubleSided" : true,
            "name" : "white",
            "pbrMetallicRoughness" : {
                "baseColorFactor" : [
                    0.8069512844085693,
                    0.879621684551239,
                    0.9130988717079163,
                    1
                ],
                "metallicFactor" : 0,
                "roughnessFactor" : 0.5
            }
        }
    ],
    "meshes" : [
        {
            "name" : "Icosphere.012",
            "primitives" : [
                {
                    "attributes" : {
                        "POSITION" : 0,
                        "NORMAL" : 1,
                        "TEXCOORD_0" : 2
                    },
                    "indices" : 3,
                    "material" : 0
                },
                {
                    "attributes" : {
                        "POSITION" : 4,
                        "NORMAL" : 5,
                        "TEXCOORD_0" : 6
                    },
                    "indices" : 7,
                    "material" : 1
                },
                {
                    "attributes" : {
                        "POSITION" : 8,
                        "NORMAL" : 9,
                        "TEXCOORD_0" : 10
                    },
                    "indices" : 11,
                    "material" : 2
                }
            ]
        },
        {
            "name" : "Icosphere.001",
            "primitives" : [
                {
                    "attributes" : {
                        "POSITION" : 12,
                        "NORMAL" : 13,
                        "TEXCOORD_0" : 14
                    },
                    "indices" : 15
                }
            ]
        },
        {
            "name" : "Icosphere.002",
            "primitives" : [
                {
                    "attributes" : {
                        "POSITION" : 16,
                        "NORMAL" : 17,
                        "TEXCOORD_0" : 18
                    },
                    "indices" : 19
                }
            ]
        },
        {
            "name" : "Icosphere.003",
            "primitives" : [
                {
                    "attributes" : {
                        "POSITION" : 20,
                        "NORMAL" : 21,
                        "TEXCOORD_0" : 22
                    },
                    "indices" : 23
                }
            ]
        },
        {
            "name" : "Icosphere.004",
            "primitives" : [
                {
                    "attributes" : {
                        "POSITION" : 24,
                        "NORMAL" : 25,
                        "TEXCOORD_0" : 26
                    },
                    "indices" : 27
                }
            ]
        },
        {
            "name" : "Icosphere.007",
            "primitives" : [
                {
                    "attributes" : {
                        "POSITION" : 28,
                        "NORMAL" : 29,
                        "TEXCOORD_0" : 30
                    },
                    "indices" : 31
                }
            ]
        }
    ],
    "accessors" : [
        {
            "bufferView" : 0,
            "componentType" : 5126,
            "count" : 1221,
            "max" : [
                103.80952453613281,
                92.61566162109375,
                93.8852310180664
            ],
            "min" : [
                -103.69933319091797,
                -88.28551483154297,
                -101.2333755493164
            ],
            "type" : "VEC3"
        },
        {
            "bufferView" : 1,
            "componentType" : 5126,
            "count" : 1221,
            "type" : "VEC3"
        },
        {
            "bufferView" : 2,
            "componentType" : 5126,
            "count" : 1221,
            "type" : "VEC2"
        },
        {
            "bufferView" : 3,
            "componentType" : 5123,
            "count" : 2475,
            "type" : "SCALAR"
        },
        {
            "bufferView" : 4,
            "componentType" : 5126,
            "count" : 110,
            "max" : [
                37.029361724853516,
                78.05091857910156,
                88.65641021728516
            ],
            "min" : [
                -102.63919830322266,
                -87.25495147705078,
                -24.4810848236084
            ],
            "type" : "VEC3"
        },
        {
            "bufferView" : 5,
            "componentType" : 5126,
            "count" : 110,
            "type" : "VEC3"
        },
        {
            "bufferView" : 6,
            "componentType" : 5126,
            "count" : 110,
            "type" : "VEC2"
        },
        {
            "bufferView" : 7,
            "componentType" : 5123,
            "count" : 132,
            "type" : "SCALAR"
        },
        {
            "bufferView" : 8,
            "componentType" : 5126,
            "count" : 202,
            "max" : [
                53.7674560546875,
                -51.95724868774414,
                88.80686950683594
            ],
            "min" : [
                -23.721529006958008,
                -96.75394439697266,
                28.290237426757812
            ],
            "type" : "VEC3"
        },
        {
            "bufferView" : 9,
            "componentType" : 5126,
            "count" : 202,
            "type" : "VEC3"
        },
        {
            "bufferView" : 10,
            "componentType" : 5126,
            "count" : 202,
            "type" : "VEC2"
        },
        {
            "bufferView" : 11,
            "componentType" : 5123,
            "count" : 252,
            "type" : "SCALAR"
        },
        {
            "bufferView" : 12,
            "componentType" : 5126,
            "count" : 381,
            "max" : [
                11.568862915039062,
                -12.989389419555664,
                -39.960323333740234
            ],
            "min" : [
                -70.52275085449219,
                -84.03595733642578,
                -101.2333755493164
            ],
            "type" : "VEC3"
        },
        {
            "bufferView" : 13,
            "componentType" : 5126,
            "count" : 381,
            "type" : "VEC3"
        },
        {
            "bufferView" : 14,
            "componentType" : 5126,
            "count" : 381,
            "type" : "VEC2"
        },
        {
            "bufferView" : 15,
            "componentType" : 5123,
            "count" : 705,
            "type" : "SCALAR"
        },
        {
            "bufferView" : 16,
            "componentType" : 5126,
            "count" : 260,
            "max" : [
                53.7674560546875,
                -51.95724868774414,
                88.80686950683594
            ],
            "min" : [
                -23.721529006958008,
                -96.75394439697266,
                28.290237426757812
            ],
            "type" : "VEC3"
        },
        {
            "bufferView" : 17,
            "componentType" : 5126,
            "count" : 260,
            "type" : "VEC3"
        },
        {
            "bufferView" : 18,
            "componentType" : 5126,
            "count" : 260,
            "type" : "VEC2"
        },
        {
            "bufferView" : 19,
            "componentType" : 5123,
            "count" : 414,
            "type" : "SCALAR"
        },
        {
            "bufferView" : 20,
            "componentType" : 5126,
            "count" : 316,
            "max" : [
                -71.90155029296875,
                64.5168228149414,
                52.93992233276367
            ],
            "min" : [
                -103.69933319091797,
                -13.472949028015137,
                -24.4810848236084
            ],
            "type" : "VEC3"
        },
        {
            "bufferView" : 21,
            "componentType" : 5126,
            "count" : 316,
            "type" : "VEC3"
        },
        {
            "bufferView" : 22,
            "componentType" : 5126,
            "count" : 316,
            "type" : "VEC2"
        },
        {
            "bufferView" : 23,
            "componentType" : 5123,
            "count" : 624,
            "type" : "SCALAR"
        },
        {
            "bufferView" : 24,
            "componentType" : 5126,
            "count" : 284,
            "max" : [
                37.029361724853516,
                92.61566162109375,
                93.8852310180664
            ],
            "min" : [
                -41.38555908203125,
                39.90961456298828,
                46.936893463134766
            ],
            "type" : "VEC3"
        },
        {
            "bufferView" : 25,
            "componentType" : 5126,
            "count" : 284,
            "type" : "VEC3"
        },
        {
            "bufferView" : 26,
            "componentType" : 5126,
            "count" : 284,
            "type" : "VEC2"
        },
        {
            "bufferView" : 27,
            "componentType" : 5123,
            "count" : 552,
            "type" : "SCALAR"
        },
        {
            "bufferView" : 28,
            "componentType" : 5126,
            "count" : 292,
            "max" : [
                103.80952453613281,
                77.91769409179688,
                19.888736724853516
            ],
            "min" : [
                63.81934356689453,
                12.989261627197266,
                -47.999202728271484
            ],
            "type" : "VEC3"
        },
        {
            "bufferView" : 29,
            "componentType" : 5126,
            "count" : 292,
            "type" : "VEC3"
        },
        {
            "bufferView" : 30,
            "componentType" : 5126,
            "count" : 292,
            "type" : "VEC2"
        },
        {
            "bufferView" : 31,
            "componentType" : 5123,
            "count" : 564,
            "type" : "SCALAR"
        }
    ],
    "bufferViews" : [
        {
            "buffer" : 0,
            "byteLength" : 14652,
            "byteOffset" : 0
        },
        {
            "buffer" : 0,
            "byteLength" : 14652,
            "byteOffset" : 14652
        },
        {
            "buffer" : 0,
            "byteLength" : 9768,
            "byteOffset" : 29304
        },
        {
            "buffer" : 0,
            "byteLength" : 4950,
            "byteOffset" : 39072
        },
        {
            "buffer" : 0,
            "byteLength" : 1320,
            "byteOffset" : 44024
        },
        {
            "buffer" : 0,
            "byteLength" : 1320,
            "byteOffset" : 45344
        },
        {
            "buffer" : 0,
            "byteLength" : 880,
            "byteOffset" : 46664
        },
        {
            "buffer" : 0,
            "byteLength" : 264,
            "byteOffset" : 47544
        },
        {
            "buffer" : 0,
            "byteLength" : 2424,
            "byteOffset" : 47808
        },
        {
            "buffer" : 0,
            "byteLength" : 2424,
            "byteOffset" : 50232
        },
        {
            "buffer" : 0,
            "byteLength" : 1616,
            "byteOffset" : 52656
        },
        {
            "buffer" : 0,
            "byteLength" : 504,
            "byteOffset" : 54272
        },
        {
            "buffer" : 0,
            "byteLength" : 4572,
            "byteOffset" : 54776
        },
        {
            "buffer" : 0,
            "byteLength" : 4572,
            "byteOffset" : 59348
        },
        {
            "buffer" : 0,
            "byteLength" : 3048,
            "byteOffset" : 63920
        },
        {
            "buffer" : 0,
            "byteLength" : 1410,
            "byteOffset" : 66968
        },
        {
            "buffer" : 0,
            "byteLength" : 3120,
            "byteOffset" : 68380
        },
        {
            "buffer" : 0,
            "byteLength" : 3120,
            "byteOffset" : 71500
        },
        {
            "buffer" : 0,
            "byteLength" : 2080,
            "byteOffset" : 74620
        },
        {
            "buffer" : 0,
            "byteLength" : 828,
            "byteOffset" : 76700
        },
        {
            "buffer" : 0,
            "byteLength" : 3792,
            "byteOffset" : 77528
        },
        {
            "buffer" : 0,
            "byteLength" : 3792,
            "byteOffset" : 81320
        },
        {
            "buffer" : 0,
            "byteLength" : 2528,
            "byteOffset" : 85112
        },
        {
            "buffer" : 0,
            "byteLength" : 1248,
            "byteOffset" : 87640
        },
        {
            "buffer" : 0,
            "byteLength" : 3408,
            "byteOffset" : 88888
        },
        {
            "buffer" : 0,
            "byteLength" : 3408,
            "byteOffset" : 92296
        },
        {
            "buffer" : 0,
            "byteLength" : 2272,
            "byteOffset" : 95704
        },
        {
            "buffer" : 0,
            "byteLength" : 1104,
            "byteOffset" : 97976
        },
        {
            "buffer" : 0,
            "byteLength" : 3504,
            "byteOffset" : 99080
        },
        {
            "buffer" : 0,
            "byteLength" : 3504,
            "byteOffset" : 102584
        },
        {
            "buffer" : 0,
            "byteLength" : 2336,
            "byteOffset" : 106088
        },
        {
            "buffer" : 0,
            "byteLength" : 1128,
            "byteOffset" : 108424
        }
    ],
    "buffers" : [
        {
            "byteLength" : 109552,
            "uri" : "data:application/octet-stream;base64,"
        }
    ]
}
