{
    "asset" : {
        "generator" : "Khronos glTF Blender I/O v3.2.43",
        "version" : "2.0"
    },
    "scene" : 0,
    "scenes" : [
        {
            "name" : "Scene",
            "nodes" : [
                0,
                1
            ]
        }
    ],
    "nodes" : [
        {
            "mesh" : 0,
            "name" : "Icosphere.001"
        },
        {
            "mesh" : 1,
            "name" : "Icosphere.002"
        }
    ],
    "meshes" : [
        {
            "name" : "Icosphere.005",
            "primitives" : [
                {
                    "attributes" : {
                        "POSITION" : 0,
                        "NORMAL" : 1,
                        "TEXCOORD_0" : 2
                    },
                    "indices" : 3
                }
            ]
        },
        {
            "name" : "Icosphere.006",
            "primitives" : [
                {
                    "attributes" : {
                        "POSITION" : 4,
                        "NORMAL" : 5,
                        "TEXCOORD_0" : 6
                    },
                    "indices" : 7
                }
            ]
        }
    ],
    "accessors" : [
        {
            "bufferView" : 0,
            "componentType" : 5126,
            "count" : 1579,
            "max" : [
                103.87532043457031,
                92.67255401611328,
                93.8852310180664
            ],
            "min" : [
                -103.76483154296875,
                -97.86712646484375,
                -101.297119140625
            ],
            "type" : "VEC3"
        },
        {
            "bufferView" : 1,
            "componentType" : 5126,
            "count" : 1579,
            "type" : "VEC3"
        },
        {
            "bufferView" : 2,
            "componentType" : 5126,
            "count" : 1579,
            "type" : "VEC2"
        },
        {
            "bufferView" : 3,
            "componentType" : 5123,
            "count" : 2991,
            "type" : "SCALAR"
        },
        {
            "bufferView" : 4,
            "componentType" : 5126,
            "count" : 4780,
            "max" : [
                103.87532043457031,
                100,
                100
            ],
            "min" : [
                -103.76483154296875,
                -100,
                -101.297119140625
            ],
            "type" : "VEC3"
        },
        {
            "bufferView" : 5,
            "componentType" : 5126,
            "count" : 4780,
            "type" : "VEC3"
        },
        {
            "bufferView" : 6,
            "componentType" : 5126,
            "count" : 4780,
            "type" : "VEC2"
        },
        {
            "bufferView" : 7,
            "componentType" : 5123,
            "count" : 6192,
            "type" : "SCALAR"
        }
    ],
    "bufferViews" : [
        {
            "buffer" : 0,
            "byteLength" : 18948,
            "byteOffset" : 0
        },
        {
            "buffer" : 0,
            "byteLength" : 18948,
            "byteOffset" : 18948
        },
        {
            "buffer" : 0,
            "byteLength" : 12632,
            "byteOffset" : 37896
        },
        {
            "buffer" : 0,
            "byteLength" : 5982,
            "byteOffset" : 50528
        },
        {
            "buffer" : 0,
            "byteLength" : 57360,
            "byteOffset" : 56512
        },
        {
            "buffer" : 0,
            "byteLength" : 57360,
            "byteOffset" : 113872
        },
        {
            "buffer" : 0,
            "byteLength" : 38240,
            "byteOffset" : 171232
        },
        {
            "buffer" : 0,
            "byteLength" : 12384,
            "byteOffset" : 209472
        }
    ],
    "buffers" : [
        {
            "byteLength" : 221856,
            "uri" : "data:application/octet-stream;base64,"
        }
    ]
}
