{
    "asset" : {
        "generator" : "Khronos glTF Blender I/O v3.2.43",
        "version" : "2.0"
    },
    "scene" : 0,
    "scenes" : [
        {
            "name" : "Scene",
            "nodes" : [
                0
            ]
        }
    ],
    "nodes" : [
        {
            "mesh" : 0,
            "name" : "continents"
        }
    ],
    "materials" : [
        {
            "doubleSided" : true,
            "extras" : {
                "color" : "#83bd75"
            },
            "name" : "green",
            "pbrMetallicRoughness" : {
                "baseColorFactor" : [
                    0.22696544229984283,
                    0.5088810920715332,
                    0.17788851261138916,
                    1
                ],
                "metallicFactor" : 0,
                "roughnessFactor" : 0.5
            }
        },
        {
            "doubleSided" : true,
            "extras" : {
                "color" : "#ffcc8f"
            },
            "name" : "brown",
            "pbrMetallicRoughness" : {
                "baseColorFactor" : [
                    1,
                    0.6038267612457275,
                    0.27467742562294006,
                    1
                ],
                "metallicFactor" : 0,
                "roughnessFactor" : 0.5
            }
        }
    ],
    "meshes" : [
        {
            "name" : "Icosphere.012",
            "primitives" : [
                {
                    "attributes" : {
                        "POSITION" : 0,
                        "NORMAL" : 1,
                        "TEXCOORD_0" : 2
                    },
                    "indices" : 3,
                    "material" : 0
                },
                {
                    "attributes" : {
                        "POSITION" : 4,
                        "NORMAL" : 5,
                        "TEXCOORD_0" : 6
                    },
                    "indices" : 7,
                    "material" : 1
                }
            ]
        }
    ],
    "accessors" : [
        {
            "bufferView" : 0,
            "componentType" : 5126,
            "count" : 1353,
            "max" : [
                103.80952453613281,
                92.61566162109375,
                93.8852310180664
            ],
            "min" : [
                -103.69933319091797,
                -91.8027572631836,
                -101.2333755493164
            ],
            "type" : "VEC3"
        },
        {
            "bufferView" : 1,
            "componentType" : 5126,
            "count" : 1353,
            "type" : "VEC3"
        },
        {
            "bufferView" : 2,
            "componentType" : 5126,
            "count" : 1353,
            "type" : "VEC2"
        },
        {
            "bufferView" : 3,
            "componentType" : 5123,
            "count" : 2643,
            "type" : "SCALAR"
        },
        {
            "bufferView" : 4,
            "componentType" : 5126,
            "count" : 180,
            "max" : [
                37.029361724853516,
                78.05091857910156,
                88.65641021728516
            ],
            "min" : [
                -102.63919830322266,
                -96.75394439697266,
                -24.4810848236084
            ],
            "type" : "VEC3"
        },
        {
            "bufferView" : 5,
            "componentType" : 5126,
            "count" : 180,
            "type" : "VEC3"
        },
        {
            "bufferView" : 6,
            "componentType" : 5126,
            "count" : 180,
            "type" : "VEC2"
        },
        {
            "bufferView" : 7,
            "componentType" : 5123,
            "count" : 216,
            "type" : "SCALAR"
        }
    ],
    "bufferViews" : [
        {
            "buffer" : 0,
            "byteLength" : 16236,
            "byteOffset" : 0
        },
        {
            "buffer" : 0,
            "byteLength" : 16236,
            "byteOffset" : 16236
        },
        {
            "buffer" : 0,
            "byteLength" : 10824,
            "byteOffset" : 32472
        },
        {
            "buffer" : 0,
            "byteLength" : 5286,
            "byteOffset" : 43296
        },
        {
            "buffer" : 0,
            "byteLength" : 2160,
            "byteOffset" : 48584
        },
        {
            "buffer" : 0,
            "byteLength" : 2160,
            "byteOffset" : 50744
        },
        {
            "buffer" : 0,
            "byteLength" : 1440,
            "byteOffset" : 52904
        },
        {
            "buffer" : 0,
            "byteLength" : 432,
            "byteOffset" : 54344
        }
    ],
    "buffers" : [
        {
            "byteLength" : 54776,
            "uri" : "data:application/octet-stream;base64,"
        }
    ]
}
