<?xml version="1.0" encoding="utf-8"?>
<svg version="1.1" xmlns="http://www.w3.org/2000/svg" xmlns:xlink="http://www.w3.org/1999/xlink" viewBox="0 0 32 32" xml:space="preserve">
	<defs>
		<linearGradient id="gradient">
			<stop stop-color="var(--secondary-color)" offset="0%" />
			<stop stop-color="var(--primary-color)" offset="100%" />
		</linearGradient>
	</defs>
	<path fill="url(#gradient)" d="M20.6,24.2c-0.8,0.5-1.8,0.9-2.7,0.8c-0.7,0-1-0.4-1.2-0.6c-0.5-0.7-0.2-1.7-0.1-2.2l1.7-6.6
	c0.3-1.2-0.4-2.4-1.6-2.7c-0.2,0-0.4-0.1-0.6-0.1c-1,0-1.9,0.7-2.1,1.6c-0.3,0.9-2.3,9.3-2.3,9.4c-0.2,1-0.6,2.4-0.1,3.4
	c0.4,0.9,1.6,1,3.8,0.4c0.9-0.3,1.9-0.7,2.7-1.2c0.9-0.6,1.7-1.3,2.5-2L20.6,24.2z M16,9.9c1.1,0.2,2.4-0.3,3.3-1.1c0.9-0.8,0.9-2.1,0.6-2.9c-0.4-1.1-1.3-1.9-2.4-2c-0.1,0-0.1,0-0.2,0 c-0.8,0-1.6,0.3-2.3,0.9c-0.7,0.7-1.2,1.6-1.2,2.4c0,0.5,0.1,1,0.4,1.5C14.6,9.4,15.2,9.8,16,9.9z" />
</svg>