<?xml version="1.0" encoding="utf-8"?>
<svg version="1.1" xmlns="http://www.w3.org/2000/svg" xmlns:xlink="http://www.w3.org/1999/xlink" viewBox="0 0 32 32" xml:space="preserve">
	<defs>
		<linearGradient id="gradient">
			<stop stop-color="var(--secondary-color)" offset="0%" />
			<stop stop-color="var(--primary-color)" offset="100%" />
		</linearGradient>
	</defs>
	<path fill="url(#gradient)" d="M26.9,17.4c-0.2,0-0.4-0.1-0.6-0.1c0.7-0.5,2.3-1.2,4.3-1.7h0.2c0.7,0,1.2-0.5,1.2-1.2c0-0.3-0.1-0.6-0.3-0.8L25.8,7 c-0.5-0.5-1.2-0.5-1.8,0l-2.1,2.4l-8-9c-0.5-0.5-1.3-0.5-1.8,0L0.3,13.6C0.1,13.9,0,14.2,0,14.5c0,0.3,0.2,0.6,0.4,0.8 c0.2,0.2,0.5,0.3,0.8,0.3h5.5v0.1c0,0.7,0.5,1.2,1.2,1.2h2.8v5.4c-2.1,0-4.2,0-6,0c-1.4,0-2.8,0-4.1,0H0.2v2.4h0.4 c1.2,0,2.5,0,3.8,0l0.2,0c9.4,0.1,15.3,0,17.3-2c0.5-0.4,0.8-1.1,0.8-1.7c0-1.4-1.2-1.9-2.1-2.3c-0.8-0.3-1.1-0.5-1.2-0.7 c0.4-0.3,1.5-0.8,4.3-1.3c-0.2,0.3-0.2,0.7-0.2,1c0,1.5,1.6,1.9,2.9,2.1c2.1,0.4,2.9,0.8,2.9,1.8c0,1.1-0.4,2.1-1.4,2.9 c-5.9,5.6-26.8,4.9-27,4.9l-0.4,0l-0.1,2.4l0.4,0c0.2,0,1.3,0,2.9,0c6,0,20.5-0.5,25.8-5.6c1.4-1.3,2.1-2.9,2.1-4.7 C31.7,18.4,28.5,17.8,26.9,17.4z M16.8,16.4l0.6-0.8h1.4c-1.3,0.6-1.8,1.3-1.8,2.2c0,1.9,1.6,2.7,2.6,3.1c0.1,0,0.3,0.1,0.5,0.2 c-0.8,0.6-3.2,1-7,1.1v-5.3h2.8C16.2,16.9,16.6,16.7,16.8,16.4z M10.7,10.2v0.9H7.9c-0.7,0-1.2,0.5-1.2,1.2v0.9l-2.8,0L13,3.1l8,9 c0.2,0.2,0.5,0.4,0.9,0.4c0.3,0,0.6-0.1,0.9-0.4l2.1-2.4l3.2,3.6H18l-1.3-1.6c-0.2-0.3-0.6-0.5-1-0.5h-2.8v-0.9H10.7z M9.1,13.5h6.2 l0.4,0.5l-0.4,0.5H9.1V13.5z" />
</svg>