<?xml version="1.0" encoding="utf-8"?>
<svg version="1.1" xmlns="http://www.w3.org/2000/svg" xmlns:xlink="http://www.w3.org/1999/xlink" viewBox="0 0 32 32" xml:space="preserve">
	<defs>
		<linearGradient id="gradient">
			<stop stop-color="var(--secondary-color)" offset="0%" />
			<stop stop-color="var(--primary-color)" offset="100%" />
		</linearGradient>
	</defs>
	<path fill="url(#gradient)" d="M32,9.1c0-1.9-1.5-3.4-3.4-3.4h-6.9V4.6c0-1.9-1.5-3.4-3.4-3.4h-4.6c-1.9,0-3.4,1.5-3.4,3.4v1.1H3.4C1.5,5.7,0,7.3,0,9.1 v9.1c0,1.3,0.4,2.4,1.1,3.4v4.6c0,1.9,1.5,3.4,3.4,3.4c0,0.6,0.5,1.1,1.1,1.1s1.1-0.5,1.1-1.1h18.3c0,0.6,0.5,1.1,1.1,1.1 c0.6,0,1.1-0.5,1.1-1.1c1.9,0,3.4-1.5,3.4-3.4v-4.6c0.7-1,1.1-2.1,1.1-3.4V9.1z M12.6,4.6c0-0.6,0.5-1.1,1.1-1.1h4.6 c0.6,0,1.1,0.5,1.1,1.1v1.1h-6.9V4.6z M2.3,9.1C2.3,8.5,2.8,8,3.4,8h8h9.1h8c0.6,0,1.1,0.5,1.1,1.1v9.1c0,0.8-0.3,1.5-0.8,2.1 c0,0-0.1,0.1-0.1,0.1c-0.6,0.7-1.5,1.1-2.5,1.1h-6.9v-2.3c0-0.6-0.5-1.1-1.1-1.1h-4.6c-0.6,0-1.1,0.5-1.1,1.1v2.3H5.7 c-1,0-1.9-0.4-2.5-1.1c0-0.1-0.1-0.1-0.1-0.1c-0.5-0.6-0.8-1.3-0.8-2.1V9.1z M17.1,22.9c0,0.6-0.5,1.1-1.1,1.1s-1.1-0.5-1.1-1.1 v-2.3h2.3V22.9z M27.4,27.4H4.6c-0.6,0-1.1-0.5-1.1-1.1v-2.8C4.1,23.8,4.9,24,5.7,24h7.1c0.5,1.3,1.7,2.3,3.2,2.3s2.7-1,3.2-2.3h7.1 c0.8,0,1.6-0.2,2.3-0.5v2.8C28.6,26.9,28.1,27.4,27.4,27.4z" />
</svg>