<?xml version="1.0" encoding="utf-8"?>
<svg version="1.1" xmlns="http://www.w3.org/2000/svg" xmlns:xlink="http://www.w3.org/1999/xlink" viewBox="0 0 32 32" xml:space="preserve">
  <path fill="currentColor" d="M28.9,5.8c-0.8-0.8-1.9-1.3-3-1.3H6.1c-2.2,0-4,1.8-4,4.1v14.9c0,2.2,1.8,4.1,4,4.1h19.8c2.2,0,4-1.8,4-4.1V8.6 C30,7.5,29.6,6.6,28.9,5.8z M5.3,12.2l7.2,6.5c2,1.9,5.2,1.9,7.1,0l7.2-6.5l0,11.1c-0.1,0.6-0.4,1-0.9,1H6.1c-0.5,0-0.8-0.3-0.8-0.8 V12.2z M17.4,16.3c-0.8,0.7-2,0.7-2.9,0L5.4,8c0.1-0.2,0.4-0.3,0.7-0.3h19.8c0.3,0,0.5,0.2,0.6,0.3L17.4,16.3z" />
</svg>