<svg xmlns="http://www.w3.org/2000/svg" viewBox="0 0 32 32">
  <path
    fill="currentColor"
    d="M30,12.3c0-1.8-0.6-3.6-1.7-5.1c0.4-1.6,0.2-3.2-0.5-5c-0.2-0.5-0.6-0.8-1.3-1c-0.6-0.2-2.4-0.3-5.7,1.7 c-2.7-0.6-5.4-0.6-8.1,0c-3-2-4.9-1.9-5.7-1.7c-0.6,0.2-1,0.5-1.1,1c-0.7,1.7-0.8,3.3-0.4,5c-1.1,1.4-1.7,3.2-1.7,5.3 c0,5.5,2.4,8.9,7.2,10.1c-0.1,0.5-0.2,1-0.2,1.6c-1.8,0.3-2.4-0.5-3.3-1.6l-0.1-0.1c-0.6-0.8-1.5-2-3-2.4c-0.9-0.3-1.9,0.2-2.2,1.2 c-0.3,0.9,0.2,1.9,1.3,2.2c0.1,0,0.4,0.3,1,1.1c1.1,1.4,2.6,3.4,6.3,3.1v1.6c0,1,0.8,1.7,1.7,1.7c1,0,1.7-0.8,1.7-1.7v-4.9 c0-0.7,0.3-1.3,0.7-1.9c0.4-0.4,0.6-1.2,0.5-1.8c-0.1-0.7-0.6-1.1-1.5-1.3c-3.9-0.5-6.5-1.8-6.5-7c0-1.3,0.5-2.4,1.4-3.4 C9.3,8.3,9.4,7.5,9.1,7C8.8,6.1,8.8,5.4,9,4.8c0.6,0.2,1.5,0.6,2.6,1.3c0.4,0.4,1,0.5,1.5,0.4c2.5-0.7,5.3-0.7,7.8,0l0.2,0 c0.4,0,0.8,0,1.3-0.3c1.2-0.8,2-1.2,2.5-1.4c0.1,0.7,0,1.4-0.3,2.1c-0.3,0.6-0.2,1.4,0.3,1.9c0.9,0.9,1.4,2.1,1.4,3.4 c0,5.2-2.6,6.5-6.4,7c-0.8,0.2-1.4,0.6-1.5,1.3c-0.2,0.6,0,1.4,0.5,1.8c0.6,0.6,0.8,1.2,0.7,2v4.8c0,1,0.8,1.7,1.7,1.7 c0.9,0,1.7-0.7,1.9-1.7l0-4.7c0.1-0.7,0-1.4-0.2-2.1C27.6,21.1,30,17.6,30,12.3z"
  />
</svg>
